<?xml version="1.0" standalone="no"?><!DOCTYPE svg PUBLIC "-//W3C//DTD SVG 1.1//EN" "http://www.w3.org/Graphics/SVG/1.1/DTD/svg11.dtd"><svg class="icon" width="16px" height="14.47px" viewBox="0 0 1132 1024" version="1.1" xmlns="http://www.w3.org/2000/svg"><path d="M1008.444478 122.273285l41.330741-86.116373c7.677537-15.86691 26.871379-22.648734 42.738289-14.971197l4.350604 2.175302c15.86691 7.677537 22.648734 26.871379 14.971197 42.73829l-96.225129 200.383714" fill="#BABABA" /><path d="M977.86229 380.110568l-31.349943-27.639133 82.405563-316.314523c4.094686-15.86691 14.58732-22.648734 23.16057-14.971197 8.57325 7.677537 12.284059 26.871379 8.189373 42.738289L977.86229 380.110568z" fill="#E2E2E2" /><path d="M960.075996 400.200123c-2.559179 0-5.246317-0.511836-7.677537-1.791425L890.210409 368.594262c-4.222645-2.047343-7.549578-5.758153-9.213044-10.236716-1.535507-4.478563-1.279589-9.468962 0.767754-13.691607L1033.652391 28.351417c5.758153-12.028141 15.86691-20.985268 28.406887-25.463831 12.539977-4.478563 26.103626-3.71081 38.131767 2.047343l4.350604 2.175302c12.028141 5.758153 20.985268 15.86691 25.463831 28.406887 4.478563 12.539977 3.71081 26.103626-2.047343 38.131767L976.198823 389.963407c-3.071015 6.525906-9.468962 10.236716-16.122827 10.236716z m-38.259726-56.173979l29.814435 14.331402L1095.712482 58.165852c3.326933-7.037742 0.383877-15.483033-6.653866-18.809966l-4.350604-2.175302c-3.326933-1.663466-7.165701-1.791425-10.748552-0.511836-3.582851 1.279589-6.397947 3.838768-8.061413 7.165701L921.81627 344.026144z"  /><path d="M913.626897 584.333051c-2.559179 0-5.246317-0.511836-7.677537-1.791426-8.957126-4.222645-12.667936-14.971197-8.445291-23.928323l63.211721-131.5418c3.966727-8.189373 0.511836-18.042212-7.805496-22.008939-8.189373-3.966727-18.042212-0.511836-22.008939 7.805496-4.222645 8.957126-14.971197 12.667936-23.928323 8.44529-8.957126-4.222645-12.667936-14.971197-8.445291-23.928323 12.539977-25.975667 43.761961-36.980136 69.865586-24.568118 12.539977 6.014071 22.008939 16.634663 26.743421 29.814435s3.838768 27.383215-2.175302 40.051151l-63.211721 131.5418c-3.071015 6.269989-9.468962 10.108757-16.122828 10.108757z"  /><path d="M861.675564 532.509676c-2.559179 0-5.246317-0.511836-7.677537-1.791425-8.957126-4.222645-12.667936-14.971197-8.445291-23.928324l52.719087-109.788778c3.966727-8.189373 0.511836-18.042212-7.805496-22.008939s-18.042212-0.511836-22.008939 7.805496l-26.999338 56.301937c-4.222645 8.957126-14.971197 12.667936-23.928324 8.445291-8.957126-4.222645-12.667936-14.971197-8.44529-23.928324l26.999338-56.301937c6.014071-12.539977 16.634663-22.008939 29.814435-26.743421 13.179772-4.606522 27.383215-3.838768 40.051151 2.175303 25.975667 12.539977 36.980136 43.761961 24.568118 69.865586L877.798391 522.27296c-3.071015 6.525906-9.468962 10.236716-16.122827 10.236716z"  /><path d="M921.432393 590.347121c-6.909783 0-13.43569-3.966727-16.378746-10.620593-3.966727-8.829167-0.127959-19.193842 8.57325-23.416487l77.159246-160.588481-116.698561-56.04602-41.586659 86.628208c-4.222645 8.957126-14.971197 12.667936-23.928323 8.445291-8.957126-4.222645-12.667936-14.971197-8.445291-23.928323l42.226453-87.907799c3.966727-8.317332 11.00447-14.459361 19.57772-17.530376 8.701209-3.071015 18.042212-2.559179 26.359543 1.407549l119.257741 57.19765c17.146499 8.189373 24.3122 28.790764 16.122827 45.937263l-77.927 162.379906c-3.454892 7.29366-9.468962 13.179772-17.01854 16.506705-2.303261 1.023672-4.86244 1.535507-7.29366 1.535507z"  /><path d="M284.196826 348.504707c52.975005 0 95.969212 40.051151 95.969212 89.571265s-42.994207 89.571264-95.969212 89.571264" fill="#FF4040" /><path d="M240.690783 443.19433a76.77537 44.785632 90 1 0 89.571265 0 76.77537 44.785632 90 1 0-89.571265 0Z" fill="#FF6464" /><path d="M257.965242 553.111067c-1.663466 0-3.454892-0.255918-5.118358-0.767754-23.032611-6.909783-43.761961-21.241186-58.221322-40.435028-15.099156-19.961596-23.032611-43.634002-23.032611-68.713955 0-62.827844 51.055621-113.883465 113.883465-113.883465s113.883465 51.055621 113.883464 113.883465c0 26.871379-9.468962 52.975005-26.871379 73.448437-6.397947 7.549578-17.658335 8.57325-25.207913 2.175302-7.549578-6.397947-8.57325-17.658335-2.175302-25.207913 11.900182-14.075484 18.426089-31.861778 18.426089-50.287867 0-42.994207-35.060752-78.054959-78.054959-78.054959s-78.054959 35.060752-78.054959 78.054959c0 34.292998 22.904652 65.003146 55.662142 74.855985 9.468962 2.815097 14.843238 12.795895 12.028142 22.264857-2.303261 7.677537-9.341003 12.667936-17.146499 12.667936z"  /><path d="M592.833812 599.304248H870.120854c0-153.166862-124.120181-277.287043-277.287042-277.287043v277.287043z" fill="#FFCA55" /><path d="M379.398284 691.434691c0-244.529552 95.457376-363.019539 213.307569-363.019539S818.937275 482.861604 818.937275 691.434691" fill="#FFE59C" /><path d="M867.305757 568.466141c-8.829167 0-16.378745-6.397947-17.658335-15.355074-18.170171-126.67936-128.598744-222.136736-256.81361-222.136736-76.263534 0-148.304422 33.397286-197.696577 91.490649-6.397947 7.549578-17.658335 8.445291-25.207913 2.047343-7.549578-6.397947-8.445291-17.658335-2.047343-25.207913 56.301938-66.154777 138.195665-104.030626 224.951833-104.030626 71.401094 0 140.370967 25.847708 194.113725 72.808643 53.230923 46.449099 88.035757 110.428573 98.016555 180.038241 1.407548 9.852839-5.374276 18.809966-15.227114 20.217514-0.767754 0-1.663466 0.127959-2.431221 0.127959z"  /><path d="M763.403091 568.466141c-8.189373 0-15.483033-5.630194-17.402417-13.819567-16.634663-71.529053-79.590466-121.561002-153.166862-121.561001-56.941732 0-109.660819 30.966066-137.427912 80.870056-4.86244 8.701209-15.738951 11.772223-24.3122 6.909783-8.701209-4.86244-11.772223-15.738951-6.909784-24.3122 34.03708-61.164378 98.784309-99.168186 168.777854-99.168186 43.88992 0 86.756168 15.099156 120.921207 42.61033 33.653204 26.999338 57.453568 64.875187 67.178449 106.717764 2.175302 9.596921-3.71081 19.321801-13.43569 21.497103-1.535507 0.127959-2.943056 0.255918-4.222645 0.255918z"  /><path d="M665.770413 608.261374c-9.852839 0-17.914253-8.061414-17.914253-17.914253 0-30.326271-24.696077-55.022348-55.022348-55.022348-16.378745 0-31.861778 7.29366-42.354413 19.961596-6.269989 7.549578-17.658335 8.701209-25.207913 2.303261-7.549578-6.269989-8.701209-17.658335-2.303261-25.207913 17.274458-20.857309 42.866248-32.88545 69.865587-32.88545 50.159908 0 90.850854 40.818905 90.850853 90.850854 0 9.852839-8.061414 17.914253-17.914252 17.914253z"  /><path d="M812.283409 789.451246h232.757329c0-128.726703-104.158585-233.269164-232.757329-233.781v233.781z" fill="#FFCA55" /><path d="M641.458212 795.849194c0-122.072838 76.007616-220.985105 169.801526-220.985106s169.801526 98.912268 169.801525 220.985106" fill="#FFE59C" /><path d="M1045.040738 807.365499c-9.852839 0-17.914253-8.061414-17.914253-17.914253 0-119.001823-96.864925-215.866747-215.866747-215.866747-65.131105 0-126.167524 29.046681-167.370306 79.590466-6.269989 7.677537-17.530376 8.829167-25.207913 2.559179s-8.829167-17.530376-2.559179-25.207913c48.112565-58.861117 119.129782-92.770238 195.137398-92.770238 138.83546 0 251.695253 112.859793 251.695253 251.695253 0 9.852839-7.933455 17.914253-17.914253 17.914253z"  /><path d="M958.924365 807.365499c-9.852839 0-17.914253-8.061414-17.914253-17.914253 0-71.529053-58.221322-129.750374-129.750374-129.750374-58.733158 0-110.300614 39.539315-125.39977 96.225129-2.559179 9.596921-12.412018 15.227115-21.880981 12.667936-9.596921-2.559179-15.227115-12.412018-12.667936-21.88098 19.321801-72.296806 85.092701-122.840591 159.948687-122.840591 91.234731 0 165.57888 74.216191 165.57888 165.57888 0 9.852839-7.933455 17.914253-17.914253 17.914253z"  /><path d="M872.807992 807.365499c-9.852839 0-17.914253-8.061414-17.914253-17.914253 0-24.056282-19.577719-43.634002-43.634001-43.634001s-43.506043 19.577719-43.506043 43.634001c0 9.852839-8.061414 17.914253-17.914253 17.914253s-17.914253-8.061414-17.914253-17.914253c0-43.761961 35.572588-79.462507 79.462508-79.462507s79.462507 35.572588 79.462507 79.462507c-0.127959 9.852839-8.061414 17.914253-18.042212 17.914253z"  /><path d="M375.04768 788.683492h293.921706c0-156.621754-126.935278-283.557031-283.557031-283.557031-3.454892 0-6.909783 0.127959-10.236716 0.255918v283.301113z" fill="#FFCA55" /><path d="M178.502734 795.08144c0-149.584012 85.476578-274.599905 206.781662-274.599905s206.781662 125.015893 206.781662 274.599905" fill="#FFE59C" /><path d="M668.841427 806.597745c-9.852839 0-17.914253-8.061414-17.914253-17.914253 0-126.935278-90.339018-236.596097-214.715116-260.780338-16.634663-3.198974-33.781163-4.86244-51.055621-4.86244-146.512997 0-265.642778 119.129782-265.642778 265.642778 0 9.852839-8.061414 17.914253-17.914253 17.914253s-17.914253-8.061414-17.914253-17.914253c0-80.486179 31.349943-156.237877 88.291675-213.179609s132.69343-88.291675 213.179609-88.291675c19.44976 0 38.899521 1.919384 57.837445 5.502235 141.138721 27.383215 243.633839 151.887273 243.633839 295.969049 0.127959 9.852839-7.933455 17.914253-17.786294 17.914253z"  /><path d="M564.426925 806.597745c-9.852839 0-17.914253-8.061414-17.914253-17.914253 0-88.93147-72.296806-161.228276-161.228276-161.228275s-161.228276 72.296806-161.228276 161.228275c0 9.852839-8.061414 17.914253-17.914253 17.914253s-17.914253-8.061414-17.914253-17.914253c0-108.637148 88.419634-197.056782 197.056782-197.056781s197.056782 88.419634 197.056782 197.056781c0 9.852839-8.061414 17.914253-17.914253 17.914253z"  /><path d="M459.884463 806.597745c-9.852839 0-17.914253-8.061414-17.914253-17.914253 0-31.221984-25.463831-56.685814-56.685814-56.685814s-56.685814 25.463831-56.685815 56.685814c0 9.852839-8.061414 17.914253-17.914252 17.914253s-17.914253-8.061414-17.914253-17.914253c0-51.055621 41.4587-92.51432 92.51432-92.51432s92.51432 41.4587 92.51432 92.51432c0 9.852839-7.933455 17.914253-17.914253 17.914253z"  /><path d="M329.750212 334.045346c33.781163 8.189373 69.737627 7.805496 104.286544-2.047343-3.582851-10.876511-8.189373-21.497103-13.819567-31.989737-22.776693-42.482371-58.349281-73.576396-99.424103-91.234731M479.078306 306.022336c10.236716-6.014071 19.961596-12.795895 28.918722-20.089555 76.903328-62.188049 106.717764-165.962757 76.007616-258.860954-12.412018 4.734481-24.568118 10.492634-36.340342 17.530376-18.042212 10.620593-34.03708 23.16057-48.112564 37.364013" fill="#74B232" /><path d="M247.984443 217.85862c2.559179 9.980798 5.630194 19.705678 9.468963 29.3026 31.861778 79.334548 100.575734 115.67489 162.891742 91.874525-2.559179-9.980798-5.630194-19.705678-9.468962-29.302599-31.861778-79.334548-100.447775-115.67489-162.891743-91.874526zM523.735979 59.061564c-8.57325 4.350604-16.890581 9.72488-25.079954 15.994869-67.562325 53.102964-96.097171 160.71644-72.296806 256.045857 8.57325-4.350604 16.890581-9.72488 25.079954-15.994868 67.562325-52.975005 95.969212-160.71644 72.296806-256.045858z" fill="#94CC62" /><path d="M378.118695 357.717752c-29.17464 0-58.47724-5.758153-85.732496-17.018541-47.088893-19.577719-86.372291-55.150307-110.556532-100.191857-5.886112-11.132429-11.00447-22.776693-14.971197-34.676875-1.535507-4.606522-1.151631-9.72488 1.15163-14.075484 2.303261-4.350604 6.269989-7.549578 10.876511-8.829168 48.112565-13.819567 100.191857-10.748552 146.640956 8.57325 47.088893 19.577719 86.372291 55.150307 110.556532 100.191857 5.886112 11.132429 11.00447 22.776693 14.971197 34.676875 1.535507 4.606522 1.151631 9.72488-1.151631 14.075485-2.303261 4.350604-6.269989 7.549578-10.87651 8.829167-19.833637 5.630194-40.307069 8.445291-60.90846 8.445291zM208.18921 212.740262c1.663466 3.582851 3.454892 7.165701 5.246317 10.620593 38.003808 71.017217 118.234069 109.148984 196.289028 95.713294-1.663466-3.582851-3.454892-7.165701-5.246317-10.620593-38.003808-71.017217-118.234069-109.148984-196.289028-95.713294z"  /><path d="M442.737964 341.339006c-2.687138 0-5.246317-0.639795-7.677537-1.791425-4.350604-2.047343-7.805496-5.886112-9.341003-10.492634-18.042212-54.510512-17.01854-114.395301 2.943056-168.521936 20.217514-55.022348 59.244993-101.599406 109.788778-131.413841 12.412018-7.29366 25.59179-13.691608 39.155439-18.809965 4.606522-1.791425 9.596921-1.535507 14.075484 0.511835 4.350604 2.047343 7.805496 5.886112 9.341003 10.492634 18.042212 54.510512 17.01854 114.395301-2.943056 168.521936-20.217514 55.022348-59.244993 101.599406-109.788778 131.413841-12.412018 7.29366-25.59179 13.691608-39.155438 18.809966-2.175302 0.895713-4.350604 1.279589-6.397948 1.279589zM572.36038 51.639945c-5.374276 2.559179-10.492634 5.374276-15.610992 8.317332-82.78944 48.75236-123.736304 146.768915-102.367159 238.899358 5.374276-2.559179 10.492634-5.374276 15.610991-8.317332 82.78944-48.75236 123.736304-146.768915 102.36716-238.899358z"  /><path d="M598.719923 801.351428H1074.855173c21.113227 0 38.387685 17.274458 38.387685 38.387685s-17.274458 38.387685-38.387685 38.387685H598.719923" fill="#AAAAAA" /><path d="M991.681856 878.126798H139.475255c-21.113227 0-38.387685-17.274458-38.387685-38.387685s17.274458-38.387685 38.387685-38.387685h852.206601c21.113227 0 38.387685 17.274458 38.387685 38.387685s-17.274458 38.387685-38.387685 38.387685z" fill="#CCCCCC" /><path d="M1074.855173 896.041051H56.301938c-31.094025 0-56.301938-25.207913-56.301938-56.301938s25.207913-56.301938 56.301938-56.301937h1018.553235c31.094025 0 56.301938 25.207913 56.301938 56.301937s-25.207913 56.301938-56.301938 56.301938z m-1018.553235-76.77537c-11.260388 0-20.473432 9.213044-20.473432 20.473432s9.213044 20.473432 20.473432 20.473432h1018.553235c11.260388 0 20.473432-9.213044 20.473432-20.473432s-9.213044-20.473432-20.473432-20.473432H56.301938z"  /><path d="M598.719923 878.126798h451.567132v25.59179c0 56.301938-46.065222 102.367159-102.36716 102.367159H598.719923" fill="#D8D8D8" /><path d="M858.348631 1006.085747h-575.815271c-56.301938 0-102.367159-46.065222-102.36716-102.367159v-25.59179h780.54959v25.59179c0 56.301938-46.065222 102.367159-102.367159 102.367159z" fill="#EFEFEF" /><path d="M947.919895 1024h-754.9578c-66.282736 0-120.281412-53.998677-120.281412-120.281412v-25.59179c0-9.852839 8.061414-17.914253 17.914253-17.914253h959.692119c9.852839 0 17.914253 8.061414 17.914253 17.914253v25.59179c0 66.282736-53.998677 120.281412-120.281413 120.281412z m-839.410706-127.958949v7.677537c0 46.577057 37.875849 84.452906 84.452906 84.452906h754.9578c46.577057 0 84.452906-37.875849 84.452907-84.452906v-7.677537h-923.863613z"  /></svg>