<?xml version="1.0" standalone="no"?><!DOCTYPE svg PUBLIC "-//W3C//DTD SVG 1.1//EN" "http://www.w3.org/Graphics/SVG/1.1/DTD/svg11.dtd"><svg class="icon" width="16px" height="14.47px" viewBox="0 0 1132 1024" version="1.1" xmlns="http://www.w3.org/2000/svg"><path d="M566.164787 1006.067179h308.956892c198.157675 0 287.821782-188.03844 213.14439-385.68375-0.128092-0.256183-1.537099-0.640458-1.537099-1.024732 0.256183-3.074198-8.966411-38.171291-241.324538-430.003437C772.136048 74.969479 669.150417 17.328267 566.164787 17.968725" fill="#E0E0E0" /><path d="M335.856125 203.445334C150.635699 575.167101 141.02883 615.003583 140.772647 619.230605c0 0.512366-1.024733-0.512366-1.152824 0-55.591746 171.00226 11.143968 386.836574 172.026993 386.836574H817.224285c161.139208 0 234.023318-188.03844 173.307908-385.68375-0.128092-0.256183-1.280916-0.640458-1.152824-1.024732 0.128092-3.074198-7.30122-38.171291-196.236301-430.003437-120.149903-230.821028-338.674139-230.821028-457.286943 14.090074z" fill="#FFFFFF" /><path d="M875.121679 1024H253.237055c-84.28426 0-156.143637-37.530833-202.384697-105.675554C23.056485 877.207049 5.892213 826.867057 1.280916 772.684319c-4.611297-54.182739 3.586564-109.518301 23.696942-159.986385 0.640458-1.665191 1.665191-3.330381 2.689923-4.739388 3.586564-9.478777 12.424883-27.923965 34.200452-67.504263 40.092665-72.499835 109.262118-189.063173 205.586987-346.359634 36.890375-61.868233 82.106703-110.286851 134.368069-143.846845C451.650913 18.224909 507.370751 0.932545 563.090589 0.035904c114.513873-1.793282 222.87935 63.661516 297.172467 179.712488 0.128092 0.128092 0.256183 0.384275 0.384275 0.512366C959.021665 346.011263 1029.087759 467.570174 1069.052332 541.735199c21.775569 40.476939 30.357705 58.794036 33.688086 68.144721 0.896641 1.280916 1.665191 2.689923 2.177557 4.227022 21.007019 55.719838 30.229613 113.232957 26.514957 166.519055-3.714656 52.64564-19.854195 101.192349-46.881518 140.260281-45.856786 66.607622-120.277994 103.113722-209.429735 103.113722zM56.104112 631.655488C22.159843 721.831961 31.63862 825.842325 80.697696 898.214068c27.795873 40.989306 80.313421 89.92029 172.667451 89.920289h621.884624c76.98304 0 140.900739-31.126254 179.968671-87.614641 47.77816-69.169454 54.438922-169.721344 17.932821-269.504686-2.43374-2.818015-3.586564-6.148396-4.098931-9.222593-2.689923-8.454044-26.77114-65.198615-238.762706-422.9584C763.553912 95.079857 668.253776 35.901547 567.958069 35.901547h-4.098931c-102.857539 1.665191-199.566683 66.095256-265.533847 176.638289 0 0.128092-0.128092 0.128092-0.128091 0.256184C83.131436 563.895042 62.636783 615.900224 60.715409 622.04862c-0.512366 3.586564-2.177557 6.916945-4.611297 9.606868z m1015.38196-4.86748z m-1010.770663-4.355113z m-35.609459-4.098931z m1043.690199 0zM282.954302 203.445334z"  /><path d="M566.164787 587.335801h214.937672c35.225185 0 64.04579 28.820606 64.04579 64.045791v290.255522c0 35.225185-28.820606 64.04579-64.04579 64.04579H566.164787" fill="#99AA80" /><path d="M697.842932 1005.682904H434.486642c-35.225185 0-64.04579-28.820606-64.045791-64.04579V651.381592c0-35.225185 28.820606-64.04579 64.045791-64.045791h263.228198c35.225185 0 64.04579 28.820606 64.04579 64.045791v290.255522c0.128092 35.225185-28.692514 64.04579-63.917698 64.04579z" fill="#ADC195" /><path d="M781.102459 1023.615725H351.227114c-45.216328 0-81.978612-36.762284-81.978611-81.978611V651.381592c0-45.216328 36.762284-81.978612 81.978611-81.978612h429.747253c45.216328 0 81.978612 36.762284 81.978612 81.978612v290.255522c0.128092 45.216328-36.634192 81.978612-81.85052 81.978611zM351.227114 605.268623c-25.490225 0-46.112969 20.622744-46.112969 46.112969v290.255522c0 25.490225 20.622744 46.112969 46.112969 46.112969h429.747253c25.490225 0 46.112969-20.622744 46.112969-46.112969V651.381592c0-25.490225-20.622744-46.112969-46.112969-46.112969H351.227114zM441.403587 309.889438c-3.586564 0-7.173129-1.024733-10.375418-3.330381l-41.373581-29.332972c-8.06977-5.764121-9.991143-16.908089-4.227022-24.977859 5.764121-8.06977 16.908089-9.991143 24.977858-4.227022l41.373581 29.332972c8.06977 5.764121 9.991143 16.908089 4.227022 24.977858-3.458473 4.995572-8.966411 7.557403-14.60244 7.557404zM538.497005 203.189151c-5.251755 0-10.631601-2.305648-14.090074-6.916945-6.148396-7.813586-4.739388-19.085646 3.074198-25.234042l50.596175-39.70839c7.813586-6.148396 19.085646-4.739388 25.234041 3.074198 6.148396 7.813586 4.739388 19.085646-3.074198 25.234042l-50.596174 39.70839c-3.458473 2.689923-7.30122 3.842747-11.143968 3.842747zM682.856217 295.286998h-43.935413c-9.863052 0-17.932821-8.06977-17.932821-17.932822s8.06977-17.932821 17.932821-17.932821h43.935413c9.863052 0 17.932821 8.06977 17.932821 17.932821s-8.06977 17.932821-17.932821 17.932822zM589.09318 427.093234c-6.020304 0-12.040609-3.074198-15.37099-8.710227L548.360057 376.625151c-5.123663-8.454044-2.43374-19.46992 6.020304-24.593583s19.46992-2.43374 24.593584 6.020304l25.234041 41.885947c5.123663 8.454044 2.43374 19.46992-6.020304 24.593583-2.818015 1.665191-6.020304 2.561832-9.094502 2.561832zM769.318034 439.646209c-3.970839 0-7.941678-1.280916-11.27206-3.970839-7.685495-6.276487-8.838319-17.548547-2.561831-25.234041l37.530833-45.984878c6.276487-7.685495 17.548547-8.838319 25.234041-2.561832s8.838319 17.548547 2.561832 25.234042L783.151924 432.985447c-3.458473 4.355114-8.710227 6.660762-13.83389 6.660762zM325.480706 439.646209c-3.586564 0-7.30122-1.152824-10.503509-3.458473-8.06977-5.764121-9.863052-17.03618-3.970839-25.10595l30.357705-41.885946c5.764121-8.06977 17.03618-9.863052 25.105949-3.970839 8.06977 5.764121 9.863052 17.03618 3.970839 25.105949l-30.357704 41.885947c-3.586564 4.86748-8.966411 7.429312-14.602441 7.429312z"  /></svg>