<?xml version="1.0" standalone="no"?><!DOCTYPE svg PUBLIC "-//W3C//DTD SVG 1.1//EN" "http://www.w3.org/Graphics/SVG/1.1/DTD/svg11.dtd"><svg class="icon" width="16px" height="16.00px" viewBox="0 0 1024 1024" version="1.1" xmlns="http://www.w3.org/2000/svg"><path fill="#515151" d="M512 0C230.4 0 0 230.4 0 512s230.4 512 512 512 512-230.4 512-512S793.6 0 512 0z m0 983.466667C251.733333 983.466667 40.533333 772.266667 40.533333 512S251.733333 40.533333 512 40.533333c260.266667 0 471.466667 211.2 471.466667 471.466667S772.266667 983.466667 512 983.466667z"  /><path fill="#515151" d="M512 661.333333c12.8 0 21.333333-8.533333 21.333333-21.333333V277.333333c0-12.8-8.533333-21.333333-21.333333-21.333333s-21.333333 8.533333-21.333333 21.333333v362.666667c0 12.8 10.666667 21.333333 21.333333 21.333333z"  /><path fill="#515151" d="M514.133333 746.666667m-21.333333 0a21.333333 21.333333 0 1 0 42.666667 0 21.333333 21.333333 0 1 0-42.666667 0Z"  /></svg>