<?xml version="1.0" standalone="no"?><!DOCTYPE svg PUBLIC "-//W3C//DTD SVG 1.1//EN" "http://www.w3.org/Graphics/SVG/1.1/DTD/svg11.dtd"><svg class="icon" width="16px" height="16.00px" viewBox="0 0 1024 1024" version="1.1" xmlns="http://www.w3.org/2000/svg"><path d="M510.50107 950.206508H954.76095c7.609954 0 13.83628 6.226326 13.83628 13.83628v29.978606c0 7.609954-6.226326 13.83628-13.83628 13.83628H513.383628" fill="#EF9365" /><path d="M862.519086 1007.857674H161.480914c-7.609954 0-13.83628-6.226326-13.836279-13.83628v-29.978606c0-7.609954 6.226326-13.83628 13.836279-13.83628h701.038172c7.609954 0 13.83628 6.226326 13.836279 13.83628v29.978606c0 7.609954-6.226326 13.83628-13.836279 13.83628z" fill="#FFBB7D" /><path d="M954.76095 1024H69.23905c-16.488233 0-29.978606-13.490373-29.978606-29.978606v-29.978606c0-16.488233 13.490373-29.978606 29.978606-29.978606h885.5219c16.488233 0 29.978606 13.490373 29.978606 29.978606v29.978606c0 16.488233-13.490373 29.978606-29.978606 29.978606z m-883.215854-32.284653h880.909808v-25.366512H71.545096v25.366512z"  /><path d="M507.964418 319.272154H797.94978c7.609954 0 13.83628 6.226326 13.83628 13.83628l57.651166 603.261795c0 7.609954-6.226326 13.83628-13.83628 13.836279H511.192884" fill="#F9E3B2" /><path d="M778.002477 950.206508H245.997523c-5.880419 0-10.723117-6.226326-10.723117-13.836279l44.622002-603.261795c0-7.609954 4.842698-13.83628 10.723117-13.83628h442.76095c5.880419 0 10.723117 6.226326 10.723117 13.83628L788.725594 936.370229c0 7.609954-4.842698 13.83628-10.723117 13.836279z" fill="#FFF3D4" /><path d="M855.600946 966.348835H168.399054c-16.488233 0-29.978606-13.490373-29.978606-29.978606v-0.807117l0.115302-0.807116L196.071614 332.186015c0.461209-16.142326 13.720977-29.056187 29.978606-29.056187h571.89956c16.257629 0 29.517397 12.913861 29.978606 29.056187l57.651166 603.377097v0.807117c0 16.488233-13.490373 29.978606-29.978606 29.978606z m-684.549938-32.284653h682.013287l-57.189957-598.649702H228.240964l-57.189956 598.649702z"  /><path d="M511.423488 156.234658c44.04549-0.345907 80.019818 35.167211 80.250423 79.212702s-35.167211 80.019818-79.212702 80.250422" fill="#F25353" /><path d="M550.395676 248.707128c-4.727396 38.395676-25.71242 60.303119-46.928048 51.770746-21.215629-8.532372-34.590699-44.276095-29.863304-82.671771 4.727396-38.395676 25.71242-54.538002 46.928048-46.00563 21.215629 8.532372 34.590699 38.510978 29.863304 76.906655z" fill="#FF6C6C" /><path d="M512.230605 331.95541c-7.033442 0-13.951582-0.807116-20.985025-2.306046-25.020606-5.534512-46.351537-20.523815-60.072514-42.085351s-18.217768-47.273956-12.683256-72.294561c5.534512-25.020606 20.523815-46.351537 42.08535-60.072515 21.561536-13.720977 47.273956-18.217768 72.294562-12.683256 25.020606 5.534512 46.351537 20.523815 60.072514 42.085351 13.720977 21.561536 18.217768 47.273956 12.683257 72.294561-5.534512 25.020606-20.523815 46.351537-42.085351 60.072514-15.681117 9.800698-33.322374 14.989303-51.309537 14.989303z m-0.345907-159.578425c-11.991442 0-23.636978 3.343768-34.014188 9.916-14.297489 9.108884-24.213489 23.291071-27.903164 39.894606s-0.691814 33.552978 8.41707 47.96577c9.108884 14.297489 23.291071 24.213489 39.894607 27.903164 16.603536 3.689675 33.552978 0.691814 47.965769-8.41707 14.297489-9.108884 24.213489-23.291071 27.903164-39.894606 3.689675-16.603536 0.691814-33.552978-8.41707-47.96577-9.108884-14.297489-23.291071-24.213489-39.894606-27.903164-4.727396-0.922419-9.339489-1.49893-13.951582-1.49893z"  /><path d="M510.03986 319.272154H797.94978c7.609954 0 13.83628 6.226326 13.83628 13.83628v50.387118c0 7.609954-6.226326 13.83628-13.83628 13.83628H509.924558" fill="#FFD524" /><path d="M514.306047 400.560297H226.396127c-7.609954 0-13.83628-6.226326-13.83628-13.836279v-50.387119c0-7.609954 6.226326-13.83628 13.83628-13.83628h288.025222" fill="#FFFFFF" /><path d="M725.770521 397.331832H283.701385c-7.609954 0-13.83628-6.226326-13.83628-13.83628v-50.387118c0-7.609954 6.226326-13.83628 13.83628-13.83628h442.069136c7.609954 0 13.83628 6.226326 13.83628 13.83628v50.387118c0 7.609954-6.226326 13.83628-13.83628 13.83628z" fill="#FFE36E" /><path d="M797.94978 413.474158H226.05022c-16.488233 0-29.978606-13.490373-29.978606-29.978606v-50.387118c0-16.488233 13.490373-29.978606 29.978606-29.978606h571.89956c16.488233 0 29.978606 13.490373 29.978606 29.978606v50.387118c0 16.603536-13.490373 29.978606-29.978606 29.978606z m-569.593514-32.284652h567.287468v-45.775026H228.356266v45.775026z"  /><path d="M520.993582 499.950906h108.730098l118.646098 23.060467 68.604887-23.060467c0.461209-9.454791 1.49893-18.909582 1.49893-28.71028 0-24.674699-1.383628-49.580002-4.035581-74.485306H520.993582" fill="#B78077" /><path d="M747.216755 523.011373c0.345907-11.530233-7.609954-126.256052-7.609954-126.256053H266.63664s-7.494652 114.725819-7.148744 126.256053l138.708703-26.519536 107.577075 24.790001 112.535075-24.790001 128.908006 26.519536z" fill="#C9A299" /><path d="M726.923545 539.153699c-30.439815 0-47.043351-6.687535-61.686747-12.683256-13.83628-5.534512-25.71242-10.37721-50.502421-10.37721-24.674699 0-36.08963 4.727396-49.4647 10.261907-14.412791 5.995721-30.785722 12.798559-61.686747 12.798559s-47.389258-6.802838-61.802049-12.798559c-13.37507-5.534512-25.020606-10.261907-49.580003-10.261907s-36.08963 4.727396-49.4647 10.261907c-14.412791 5.995721-30.785722 12.798559-61.917351 12.798559-60.879631 0-92.241865-25.71242-93.510191-26.865443-3.45907-2.882558-5.534512-7.148745-5.765116-11.645536-0.345907-7.494652 2.536651-34.936606 8.301768-86.59205 0.807116-7.609954 1.614233-14.182187 2.075442-19.140187 0.922419-8.186465 7.840558-14.412791 16.027024-14.412791h609.834027c8.186465 0 15.219908 6.226326 16.027024 14.412791 2.421349 21.907443 10.031303 94.202004 9.570094 105.616935-0.230605 5.765117-3.689675 11.069024-8.87828 13.720977-1.96014 1.153023-49.580002 24.905303-107.577074 24.905304z m-112.189168-55.345119c31.131629 0 47.850467 6.802838 62.609165 12.798559 13.605675 5.534512 25.366513 10.261907 49.580003 10.261907 36.204932 0 68.489585-11.069024 83.824794-17.180047-1.153023-15.450512-4.150884-46.120932-7.379349-76.67605H222.475847c-0.230605 1.614233-0.345907 3.113163-0.576511 4.842698-2.190744 19.832001-6.341628 57.074654-7.725257 73.908794 10.031303 5.649814 31.938746 15.33521 66.529445 15.33521 24.674699 0 36.204932-4.727396 49.580003-10.261908 14.412791-5.995721 30.785722-12.798559 61.802049-12.798558 31.016327 0 47.50456 6.802838 61.917352 12.798558 13.37507 5.534512 24.905303 10.261907 49.4647 10.261908 24.559396 0 35.974327-4.727396 49.349397-10.261908 14.528094-6.226326 30.901025-13.029163 61.917352-13.029163z m212.617498 16.142326zM518.456931 170.878054c-1.153023 0-2.306047-0.115302-3.45907-0.345907-8.647675-1.96014-14.182187-10.607814-12.222047-19.255489 7.955861-35.743723 20.29321-64.684608 37.703862-88.206283C566.076793 28.364373 601.705213 7.264047 646.096611 0.230605c8.762977-1.383628 17.064745 4.612093 18.448373 13.490372 1.383628 8.762977-4.612093 17.064745-13.490373 18.448373-60.994933 9.570093-100.313028 52.001351-116.801261 126.14075-1.614233 7.494652-8.301768 12.567954-15.796419 12.567954z"  /></svg>