<?xml version="1.0" standalone="no"?><!DOCTYPE svg PUBLIC "-//W3C//DTD SVG 1.1//EN" "http://www.w3.org/Graphics/SVG/1.1/DTD/svg11.dtd"><svg class="icon" width="16px" height="13.55px" viewBox="0 0 1209 1024" version="1.1" xmlns="http://www.w3.org/2000/svg"><path d="M155.725863 715.109555a449.248624 308.890445 0 1 0 898.497249 0 449.248624 308.890445 0 1 0-898.497249 0Z" fill="#CCCCCC" /><path d="M1014.267134 842.661331l140.870435-196.194097H54.29915l140.870435 196.194097H1014.267134z" fill="#CCCCCC" /><path d="M0 474.349175a604.974487 415.43972 0 1 0 1209.948974 0 604.974487 415.43972 0 1 0-1209.948974 0Z" fill="#F2F2F2" /><path d="M1172.554277 474.349175a281.228614 281.228614 0 0 1-65.568784 176.216108 380.094047 380.094047 0 0 1-43.541771 46.615307c-7.171586 6.65933-14.855428 13.318659-23.563782 19.977989s-21.514757 16.392196-33.296648 24.588294a527.623812 527.623812 0 0 1-57.884943 33.808905 641.344672 641.344672 0 0 1-85.546773 36.370185c-11.781891 4.098049-24.588294 8.196098-36.882441 11.781891a808.34017 808.34017 0 0 1-207.975988 29.710855h-26.637319a804.242121 804.242121 0 0 1-161.872937-18.44122l-14.343171-3.073537a588.070035 588.070035 0 0 1-62.495248-17.416708l-33.808904-12.294147a546.577289 546.577289 0 0 1-175.191596-106.549275A301.206603 301.206603 0 0 1 36.882441 474.349175c0-208.488244 256.128064-378.557279 568.092046-378.557279s567.57979 169.556778 567.57979 378.557279z" fill="#E5E5E5" /><path d="M325.282641 281.228614m-184.412206 0a184.412206 184.412206 0 1 0 368.824412 0 184.412206 184.412206 0 1 0-368.824412 0Z" fill="#F0AD4A" /><path d="M461.030515 261.250625H189.534767a20.490245 20.490245 0 0 0 0 40.980491H461.030515a20.490245 20.490245 0 0 0 0-40.980491zM204.902451 242.809405h240.248124a20.490245 20.490245 0 0 0 0-40.980491H204.902451a20.490245 20.490245 0 0 0 0 40.980491zM256.128064 184.412206h137.284642a20.490245 20.490245 0 1 0 0-40.98049H256.128064a20.490245 20.490245 0 0 0 0 40.98049zM445.150575 320.16008H204.902451A20.490245 20.490245 0 0 0 204.902451 358.57929h240.248124a20.490245 20.490245 0 0 0 0-40.980491zM393.412706 378.557279H256.128064a20.490245 20.490245 0 0 0 0 40.98049h137.284642a20.490245 20.490245 0 1 0 0-40.98049z" fill="#FCE3D4" /><path d="M583.45973 184.412206m-184.412206 0a184.412206 184.412206 0 1 0 368.824412 0 184.412206 184.412206 0 1 0-368.824412 0Z" fill="#F0AD4A" /><path d="M717.158579 163.921961H447.711856a20.490245 20.490245 0 1 0 0 40.468234H717.158579a20.490245 20.490245 0 1 0 0-40.468234zM464.104052 145.48074h238.711356a20.490245 20.490245 0 0 0 0-40.468234H464.104052a20.490245 20.490245 0 1 0 0 40.468234zM514.817409 87.083542h136.772386a20.490245 20.490245 0 0 0 0-40.468234h-136.772386a20.490245 20.490245 0 1 0 0 40.468234zM702.815408 222.831416H464.104052a20.490245 20.490245 0 1 0 0 40.98049h238.711356a20.490245 20.490245 0 0 0 0-40.98049zM651.589795 281.228614h-136.772386a20.490245 20.490245 0 1 0 0 40.980491h136.772386a20.490245 20.490245 0 0 0 0-40.980491z" fill="#FCE3D4" /><path d="M855.97999 263.811906m-184.412206 0a184.412206 184.412206 0 1 0 368.824412 0 184.412206 184.412206 0 1 0-368.824412 0Z" fill="#F0AD4A" /><path d="M991.727864 243.321661h-271.495748a20.490245 20.490245 0 0 0 0 40.98049h271.495748a20.490245 20.490245 0 0 0 0-40.98049zM737.136568 224.88044h238.711356a20.490245 20.490245 0 1 0 0-40.468234h-238.711356a20.490245 20.490245 0 1 0 0 40.468234zM787.849925 166.483242H922.061031a20.490245 20.490245 0 0 0 0-40.980491h-134.211106a20.490245 20.490245 0 0 0 0 40.980491zM975.847924 302.743372h-238.711356a20.490245 20.490245 0 1 0 0 40.98049h238.711356a20.490245 20.490245 0 0 0 0-40.98049zM922.061031 358.57929h-134.211106a20.490245 20.490245 0 0 0 0 40.98049H922.061031a20.490245 20.490245 0 0 0 0-40.98049z" fill="#FCE3D4" /><path d="M1004.022011 424.66033m-184.412206 0a184.412206 184.412206 0 1 0 368.824412 0 184.412206 184.412206 0 1 0-368.824412 0Z" fill="#F0B854" /><path d="M1139.769885 404.682341H870.835418a20.490245 20.490245 0 0 0 0 40.98049h270.983491a20.490245 20.490245 0 1 0 0-40.98049zM885.178589 386.241121h238.711356a20.490245 20.490245 0 0 0 0-40.468235h-238.711356a20.490245 20.490245 0 1 0 0 40.468235zM935.891946 327.843922h136.772386a20.490245 20.490245 0 0 0 0-40.98049h-136.772386a20.490245 20.490245 0 1 0 0 40.98049zM1123.889945 463.591796h-238.711356a20.490245 20.490245 0 1 0 0 40.98049h238.711356a20.490245 20.490245 0 0 0 0-40.98049zM1072.152076 521.988994h-136.26013a20.490245 20.490245 0 1 0 0 40.980491h136.772386a20.490245 20.490245 0 0 0 0-40.980491z" fill="#FCE3D4" /><path d="M767.35968 465.64082m-184.412206 0a184.412206 184.412206 0 1 0 368.824412 0 184.412206 184.412206 0 1 0-368.824412 0Z" fill="#F0B854" /><path d="M903.107554 445.150575h-270.983492a20.490245 20.490245 0 1 0 0 40.980491h270.983492a20.490245 20.490245 0 0 0 0-40.980491zM648.516258 426.709355h238.711356a20.490245 20.490245 0 1 0 0-40.468234h-238.711356a20.490245 20.490245 0 1 0 0 40.98049zM699.229615 368.312156h136.772386a20.490245 20.490245 0 1 0 0-40.468234h-136.772386a20.490245 20.490245 0 1 0 0 40.468234zM887.227614 504.572286h-238.711356a20.490245 20.490245 0 0 0 0 40.98049h238.711356a20.490245 20.490245 0 0 0 0-40.98049zM836.002001 563.481741h-136.772386a20.490245 20.490245 0 0 0 0 40.98049h136.772386a20.490245 20.490245 0 1 0 0-40.98049z" fill="#FCE3D4" /><path d="M509.694847 386.241121m-184.412206 0a184.412206 184.412206 0 1 0 368.824413 0 184.412206 184.412206 0 1 0-368.824413 0Z" fill="#F0B854" /><path d="M645.442721 365.750875H373.946973a20.490245 20.490245 0 0 0 0 40.468235h271.495748a20.490245 20.490245 0 0 0 0-40.468235zM390.851426 347.309655h238.711355a20.490245 20.490245 0 1 0 0-40.98049H390.851426a20.490245 20.490245 0 1 0 0 40.98049zM441.052526 288.912456h136.772386a20.490245 20.490245 0 1 0 0-40.468234H441.052526a20.490245 20.490245 0 1 0 0 40.468234zM629.050525 424.66033H390.851426a20.490245 20.490245 0 1 0 0 40.98049h238.711355a20.490245 20.490245 0 1 0 0-40.98049zM577.824912 483.569785H441.052526a20.490245 20.490245 0 1 0 0 40.468234h136.772386a20.490245 20.490245 0 1 0 0-40.468234z" fill="#FCE3D4" /><path d="M204.390195 457.956978m-184.412206 0a184.412206 184.412206 0 1 0 368.824412 0 184.412206 184.412206 0 1 0-368.824412 0Z" fill="#F0B854" /><path d="M339.625813 437.466733H68.642321a20.490245 20.490245 0 1 0 0 40.980491h270.983492a20.490245 20.490245 0 0 0 0-40.980491zM85.546773 419.537769h238.1991a20.490245 20.490245 0 0 0 0-40.98049H85.546773a20.490245 20.490245 0 0 0 0 40.98049zM135.747874 358.57929h136.772386a20.490245 20.490245 0 1 0 0-40.980491H135.747874a20.490245 20.490245 0 0 0 0 40.980491zM323.745873 496.888444H85.546773a20.490245 20.490245 0 0 0 0 40.98049h238.1991a20.490245 20.490245 0 0 0 0-40.98049zM272.52026 555.285643H135.747874a20.490245 20.490245 0 1 0 0 40.468234h136.772386a20.490245 20.490245 0 1 0 0-40.468234z" fill="#FCE3D4" /><path d="M494.327164 614.707354a183.387694 183.387694 0 0 1-4.610306 40.98049 153.676838 153.676838 0 0 1-5.122561 18.441221 177.24062 177.24062 0 0 1-19.465733 40.98049 174.67934 174.67934 0 0 1-13.318659 18.44122 184.924462 184.924462 0 0 1-48.664332 40.980491 178.777389 178.777389 0 0 1-61.982992 22.539269 153.676838 153.676838 0 0 1-23.051525 0 546.577289 546.577289 0 0 1-175.191596-106.549274A184.412206 184.412206 0 0 1 461.030515 512.256128a185.948974 185.948974 0 0 1 21.002502 43.541771 192.608304 192.608304 0 0 1 8.708354 40.98049c3.073537 7.683842 3.585793 13.830915 3.585793 17.928965z" fill="#FCC254" /><path d="M445.662831 596.266133H174.167084a20.490245 20.490245 0 0 0 0 40.98049h271.495747a20.490245 20.490245 0 0 0 0-40.98049zM191.071536 577.824912h238.199099a20.490245 20.490245 0 1 0 0-40.468234H191.071536a20.490245 20.490245 0 1 0 0 40.468234zM241.784892 519.427714h136.260131a20.490245 20.490245 0 1 0 0-40.98049H241.784892a20.490245 20.490245 0 1 0 0 40.98049zM429.270635 655.175588H191.071536a20.490245 20.490245 0 0 0 0 40.98049h238.199099a20.490245 20.490245 0 0 0 0-40.98049zM378.045023 713.572786H241.784892a20.490245 20.490245 0 0 0 0 40.980491h136.260131a20.490245 20.490245 0 1 0 0-40.980491z" fill="#FCE3D4" /><path d="M678.227114 696.156078v12.294147a177.24062 177.24062 0 0 1 0 18.441221A182.363182 182.363182 0 0 1 665.932966 768.384192a166.995498 166.995498 0 0 1-8.708354 17.416708 182.363182 182.363182 0 0 1-29.710855 39.443722 167.507754 167.507754 0 0 1-22.53927 19.465733l-11.781891 8.196098a804.242121 804.242121 0 0 1-161.872936-18.44122h-5.634818a18.953477 18.953477 0 0 1-10.757378-3.073537 588.070035 588.070035 0 0 1-62.495248-17.416709l-10.757379-14.855427a188.510255 188.510255 0 0 1-21.002501-43.541771 175.191596 175.191596 0 0 1-8.708354-40.468234 172.118059 172.118059 0 0 1 0-17.928965 181.850925 181.850925 0 0 1 4.610305-40.468234 153.676838 153.676838 0 0 1 5.122561-18.44122 176.216108 176.216108 0 0 1 19.465733-40.468235 189.022511 189.022511 0 0 1 13.31866-18.44122 182.363182 182.363182 0 0 1 48.664332-40.468234A176.216108 176.216108 0 0 1 461.030515 512.256128a163.409705 163.409705 0 0 1 30.735368-2.561281 182.363182 182.363182 0 0 1 97.328664 27.661831 187.997999 187.997999 0 0 1 65.056529 69.154578 169.044522 169.044522 0 0 1 15.87994 40.468234 147.017509 147.017509 0 0 1 4.098049 18.44122 177.752876 177.752876 0 0 1 4.098049 30.735368z" fill="#FCC954" /><path d="M629.562781 675.665833H358.57929A20.490245 20.490245 0 1 0 358.57929 717.158579h271.495748a20.490245 20.490245 0 0 0 0-40.98049zM374.971486 657.224612H614.707354a20.490245 20.490245 0 1 0 0-42.517258H374.971486a20.490245 20.490245 0 0 0 0 40.468234zM425.684842 598.827414H563.481741a20.490245 20.490245 0 0 0 0-40.980491H425.684842a20.490245 20.490245 0 0 0 0 40.980491zM614.707354 734.575288H374.971486a20.490245 20.490245 0 0 0 0 40.98049H614.707354a20.490245 20.490245 0 1 0 0-40.98049zM582.947474 813.462731a18.953477 18.953477 0 0 1-4.098049 12.294147 19.977989 19.977989 0 0 1-16.392196 8.196098H425.684842a18.953477 18.953477 0 0 1-10.757378-3.073536 21.002501 21.002501 0 0 1-9.220611-16.904453 20.490245 20.490245 0 0 1 20.490246-20.490245H563.481741a20.490245 20.490245 0 0 1 19.465733 19.977989z" fill="#FCE3D4" /><path d="M884.666333 687.95998a179.801901 179.801901 0 0 1 0 28.686343 174.167084 174.167084 0 0 1-3.585793 17.416709 187.485743 187.485743 0 0 1-15.87994 40.98049 177.24062 177.24062 0 0 1-18.953476 28.174087 166.995498 166.995498 0 0 1-17.928965 19.465733 808.34017 808.34017 0 0 1-207.975988 29.710855l-14.343172-8.196098a182.363182 182.363182 0 0 1-24.588294-18.441221 177.24062 177.24062 0 0 1-29.198599-32.784392 159.311656 159.311656 0 0 1-10.757379-17.416708 180.826413 180.826413 0 0 1-16.392196-40.98049 153.676838 153.676838 0 0 1-3.585793-18.441221 179.801901 179.801901 0 0 1 0-28.686343v-12.294147a153.676838 153.676838 0 0 1 0-18.441221 180.314157 180.314157 0 0 1 11.781891-40.98049 117.818909 117.818909 0 0 1 8.708354-17.416708 176.216108 176.216108 0 0 1 29.1986-39.955978 162.385193 162.385193 0 0 1 22.539269-19.465733 182.875438 182.875438 0 0 1 188.510256-17.928965 178.777389 178.777389 0 0 1 51.225612 35.345673 184.412206 184.412206 0 0 1 30.735368 40.98049 183.387694 183.387694 0 0 1 21.002501 58.909455 134.723362 134.723362 0 0 1 0 18.441221c-0.512256 5.122561-0.512256 9.22061-0.512256 13.318659z" fill="#FCC254" /><path d="M836.002001 665.932966H563.481741a20.490245 20.490245 0 0 0 0 40.980491h270.983492a20.490245 20.490245 0 1 0 0-40.980491zM581.922961 649.028514H819.609805a20.490245 20.490245 0 1 0 0-40.98049h-237.686844a20.490245 20.490245 0 0 0 0 40.98049zM632.124062 590.631316H768.384192a20.490245 20.490245 0 0 0 0-40.980491h-136.26013a20.490245 20.490245 0 1 0 0 40.980491zM819.609805 726.891446h-237.686844a20.490245 20.490245 0 1 0 0 40.468234H819.609805a20.490245 20.490245 0 1 0 0-40.468234zM768.384192 785.288644h-136.26013a20.490245 20.490245 0 1 0 0 40.468234H768.384192a20.490245 20.490245 0 1 0 0-40.468234z" fill="#FCE3D4" /><path d="M1108.010005 636.734367v13.31866a380.094047 380.094047 0 0 1-43.541771 46.615307c-7.171586 6.65933-14.855428 13.318659-23.563782 19.977989s-21.514757 16.392196-33.296648 24.588294a527.623812 527.623812 0 0 1-57.884943 33.808905 641.344672 641.344672 0 0 1-85.546773 36.370185 144.456228 144.456228 0 0 1-18.953477-7.683842 179.289645 179.289645 0 0 1-51.225613-35.345673 187.485743 187.485743 0 0 1-30.735367-40.98049 153.676838 153.676838 0 0 1-8.708354-18.441221 175.191596 175.191596 0 0 1-11.781891-40.468234 136.772386 136.772386 0 0 1 0-18.44122v-12.294148a177.752876 177.752876 0 0 1 0-28.174087 126.527264 126.527264 0 0 1 3.585793-17.928964 184.412206 184.412206 0 0 1 362.677338 46.103051z" fill="#FCC954" /><path d="M1059.345673 614.707354h-271.495748a20.490245 20.490245 0 0 0 0 40.468234h271.495748a20.490245 20.490245 0 0 0 0-40.468234zM804.754377 598.315158h238.711356a20.490245 20.490245 0 1 0 0-40.468235h-238.711356a20.490245 20.490245 0 0 0 0 40.468235zM855.467734 539.917959h136.772386a20.490245 20.490245 0 0 0 0-40.98049H855.467734a20.490245 20.490245 0 0 0 0 40.98049zM1063.443722 696.156078c-7.171586 6.65933-14.855428 13.318659-23.563782 19.977989h-235.637819a21.002501 21.002501 0 0 1-20.490245-20.490245 20.490245 20.490245 0 0 1 20.490245-20.490245h238.1991a20.490245 20.490245 0 0 1 21.002501 21.002501zM1007.095548 740.722361a527.623812 527.623812 0 0 1-57.884943 33.808905h-94.255127a19.977989 19.977989 0 0 1-19.465733-14.855428 21.514757 21.514757 0 0 1 0-5.634817 20.490245 20.490245 0 0 1 19.977989-20.490246h136.772386a19.977989 19.977989 0 0 1 14.855428 7.171586z" fill="#FCE3D4" /></svg>