<?xml version="1.0" standalone="no"?><!DOCTYPE svg PUBLIC "-//W3C//DTD SVG 1.1//EN" "http://www.w3.org/Graphics/SVG/1.1/DTD/svg11.dtd"><svg class="icon" width="16px" height="16.00px" viewBox="0 0 1024 1024" version="1.1" xmlns="http://www.w3.org/2000/svg"><path fill="#515151" d="M647.4 914.2H287.5c-33.6 0-61.6-25.2-64.9-58.7l-56-577-57.9-114.4c-5.9-11.6-5.3-25 1.5-36.1s18.6-17.6 31.5-17.6h629c4.8 0 9.4 2 12.6 5.6s4.8 8.3 4.3 13.1l-75.3 726.4c-3.4 33.5-31.3 58.7-64.9 58.7zM141.7 144.4c-1.1 0-2 0.5-2.6 1.4-0.6 0.9-0.6 1.9-0.1 2.9L198.4 266c1 1.9 1.5 3.9 1.8 6l56.3 580.2c1.6 16 15 28.1 31.1 28.1h359.8c16.1 0 29.5-12.1 31.1-28.1l73.3-707.7H141.7z"  /><path fill="#515151" d="M402.2 421.1h-193c-9.4 0-17-7.6-17-17s7.6-17 17-17h193c9.4 0 17 7.6 17 17s-7.6 17-17 17zM339.6 530.5H223.2c-9.4 0-17-7.6-17-17s7.6-17 17-17h116.3c9.4 0 17 7.6 17 17s-7.5 17-16.9 17zM415.8 651.9h-193c-9.4 0-17-7.6-17-17s7.6-17 17-17h193c9.4 0 17 7.6 17 17s-7.6 17-17 17zM818.1 582.5h-91.7c-9.4 0-17-7.6-17-17s7.6-17 17-17h91.7c36.3 0 65.9-29.6 65.9-65.9V210.1c0-36.3-29.6-65.9-65.9-65.9h-47.7c-9.4 0-17-7.6-17-17s7.6-17 17-17h47.7c55.1 0 99.9 44.8 99.9 99.9v272.5c0 55.1-44.8 99.9-99.9 99.9z"  /></svg>