<?xml version="1.0" standalone="no"?><!DOCTYPE svg PUBLIC "-//W3C//DTD SVG 1.1//EN" "http://www.w3.org/Graphics/SVG/1.1/DTD/svg11.dtd"><svg class="icon" width="16px" height="16.00px" viewBox="0 0 1024 1024" version="1.1" xmlns="http://www.w3.org/2000/svg"><path fill="#515151" d="M512 48.761905C767.427677 48.761905 975.238095 256.572323 975.238095 512S767.427677 975.238095 512 975.238095 48.761905 767.427677 48.761905 512 256.572323 48.761905 512 48.761905m0-48.761905C229.272524 0 0 229.272524 0 512s229.272524 512 512 512 512-229.272524 512-512S794.727476 0 512 0z"  /><path fill="#515151" d="M512 365.714286a146.285714 146.285714 0 1 1-146.285714 146.285714 146.445965 146.445965 0 0 1 146.285714-146.285714m0-48.761905a195.047619 195.047619 0 1 0 195.047619 195.047619 195.047619 195.047619 0 0 0-195.047619-195.047619z"  /><path fill="#515151" d="M212.102839 690.290007a88.584127 88.584127 0 0 1-20.454818-2.369417c-33.732707-7.955287-69.823385-39.146881-69.823384-102.777733 0-15.006304 3.571294-34.064655 7.360071-54.221864 5.345495-28.455891 14.285178-76.061704 3.65142-88.870289-0.652448-0.789805-2.644131-3.193561-11.011491-3.193561-54.210418 0-73.646501 54.290543-74.401968 56.602727L1.247664 479.949922c1.224771-3.662866 30.974111-89.808898 120.657098-89.808898 25.846099 0 40.66926 11.320545 48.544422 20.821104 25.182204 30.424681 15.418377 82.79222 6.741963 128.990119-3.353812 17.879365-6.52448 34.762888-6.52448 45.236396 0 30.779522 11.446457 50.364409 32.210328 55.320724 17.421507 4.132171 36.559982-3.548402 43.496535-17.467292 6.306998-12.591102 8.848111-39.730651 11.297653-65.954483 5.631657-60.162575 13.346568-142.577062 83.650704-142.577062v48.761905c-24.037559 0-29.898144 42.626604-35.106282 98.3594-2.998972 32.050078-5.849139 62.44042-16.231076 83.215739-13.976123 27.929354-45.293628 45.442432-77.88169 45.442433zM827.750503 742.234026c-42.351889 0-79.632998-29.932484-95.074268-76.2334-9.740934-29.222803-4.738833-75.214666 0.54943-123.896445 4.704494-43.301945 10.565079-97.168969 0.778359-116.753857-11.606707-23.247753-69.594456-17.730561-94.238676-11.618153l-11.801297-47.319651c11.927208-2.976079 117.474983-27.254013 149.650972 37.132305 16.18529 32.382025 10.301811 86.500872 4.086385 143.801833-4.280975 39.421596-9.157165 84.08567-2.758596 103.201252 10.565079 31.672345 32.897116 42.901319 48.807691 42.901319 6.203979 0 21.267516-1.797094 26.830494-18.520367 8.928236-26.773262 0.824145-71.437335-7.028124-114.636262-11.343438-62.486206-23.087503-127.055667 12.911603-163.077666 43.496535-43.496535 107.882853-55.068902 110.607109-55.549653l8.310127 48.075117c-0.457858 0.080125-52.047038 9.580684-84.440509 41.974156-17.925151 17.925151-8.092645 72.112676 0.583769 119.890186 8.939683 49.219763 18.176973 100.145048 5.311156 138.776838-10.496401 31.500648-39.192667 51.852448-73.085625 51.852448zM306.662017 346.896311a24.232148 24.232148 0 0 1-14.949073-5.139459L214.735524 281.926224a24.371795 24.371795 0 0 1 29.932484-38.47154L321.645428 303.331098a24.380952 24.380952 0 0 1-14.971965 43.622445zM414.819584 176.710396a24.380952 24.380952 0 0 1-2.987525-48.567315l96.734004-12.098905a24.380952 24.380952 0 1 1 6.043729 48.384172l-96.756897 12.098904a24.12913 24.12913 0 0 1-3.033311 0.183144zM625.48017 304.269707a24.380952 24.380952 0 0 1-18.039616-40.783724l65.599643-72.112676a24.392399 24.392399 0 0 1 36.090677 32.805544l-65.599642 72.112676a24.380952 24.380952 0 0 1-18.051062 7.97818z"  /></svg>